<?xml version="1.0" encoding="UTF-8" standalone="no"?>
<!-- Created with Inkscape (http://www.inkscape.org/) -->

<svg
   xmlns:dc="http://purl.org/dc/elements/1.1/"
   xmlns:cc="http://creativecommons.org/ns#"
   xmlns:rdf="http://www.w3.org/1999/02/22-rdf-syntax-ns#"
   xmlns:svg="http://www.w3.org/2000/svg"
   xmlns="http://www.w3.org/2000/svg"
   xmlns:sodipodi="http://sodipodi.sourceforge.net/DTD/sodipodi-0.dtd"
   xmlns:inkscape="http://www.inkscape.org/namespaces/inkscape"
   width="210mm"
   height="297mm"
   viewBox="0 0 744.09448819 1052.3622047"
   id="svg2"
   version="1.1"
   inkscape:version="0.91 r13725"
   sodipodi:docname="logo.svg">
  <defs
     id="defs4">
    <inkscape:perspective
       id="perspective10"
       inkscape:persp3d-origin="372.04724 : 350.78739 : 1"
       inkscape:vp_z="744.09448 : 526.18109 : 1"
       inkscape:vp_y="0 : 1000 : 0"
       inkscape:vp_x="0 : 526.18109 : 1"
       sodipodi:type="inkscape:persp3d" />
    <inkscape:perspective
       id="perspective10-4"
       inkscape:persp3d-origin="372.04724 : 350.78739 : 1"
       inkscape:vp_z="744.09448 : 526.18109 : 1"
       inkscape:vp_y="0 : 1000 : 0"
       inkscape:vp_x="0 : 526.18109 : 1"
       sodipodi:type="inkscape:persp3d" />
  </defs>
  <sodipodi:namedview
     id="base"
     pagecolor="#ffffff"
     bordercolor="#666666"
     borderopacity="1.0"
     inkscape:pageopacity="0.0"
     inkscape:pageshadow="2"
     inkscape:zoom="0.70710678"
     inkscape:cx="341.42416"
     inkscape:cy="715.454"
     inkscape:document-units="px"
     inkscape:current-layer="layer1"
     showgrid="false"
     inkscape:window-width="1855"
     inkscape:window-height="1056"
     inkscape:window-x="65"
     inkscape:window-y="24"
     inkscape:window-maximized="1" />
  <metadata
     id="metadata7">
    <rdf:RDF>
      <cc:Work
         rdf:about="">
        <dc:format>image/svg+xml</dc:format>
        <dc:type
           rdf:resource="http://purl.org/dc/dcmitype/StillImage" />
        <dc:title></dc:title>
      </cc:Work>
    </rdf:RDF>
  </metadata>
  <g
     inkscape:label="Layer 1"
     inkscape:groupmode="layer"
     id="layer1">
    <g
       id="g4457"
       transform="translate(69.190149,0)">
      <path
         inkscape:connector-curvature="0"
         id="path4221"
         d="m 158.59395,256.36202 c 106.57109,0 106.57109,0 106.57109,0"
         style="fill:none;fill-rule:evenodd;stroke:#000000;stroke-width:2.5;stroke-linecap:round;stroke-linejoin:miter;stroke-miterlimit:4;stroke-dasharray:none;stroke-opacity:1" />
      <path
         style="fill:none;fill-rule:evenodd;stroke:#000000;stroke-width:2.5;stroke-linecap:round;stroke-linejoin:miter;stroke-miterlimit:4;stroke-dasharray:none;stroke-opacity:1"
         d="m 158.59395,284.86202 c 106.57109,0 106.57109,0 106.57109,0"
         id="path4223"
         inkscape:connector-curvature="0" />
      <path
         inkscape:connector-curvature="0"
         id="path4225"
         d="m 158.59395,313.36202 c 106.57109,0 106.57109,0 106.57109,0"
         style="fill:none;fill-rule:evenodd;stroke:#000000;stroke-width:2.5;stroke-linecap:round;stroke-linejoin:miter;stroke-miterlimit:4;stroke-dasharray:none;stroke-opacity:1" />
      <path
         style="fill:none;fill-rule:evenodd;stroke:#000000;stroke-width:2.5;stroke-linecap:round;stroke-linejoin:miter;stroke-miterlimit:4;stroke-dasharray:none;stroke-opacity:1"
         d="m 158.59395,341.86202 c 106.57109,0 106.57109,0 106.57109,0"
         id="path4227"
         inkscape:connector-curvature="0" />
      <path
         style="fill:none;fill-rule:evenodd;stroke:#000000;stroke-width:2.5;stroke-linecap:round;stroke-linejoin:miter;stroke-miterlimit:4;stroke-dasharray:none;stroke-opacity:1"
         d="m 158.59395,370.36202 c 106.57109,0 106.57109,0 106.57109,0"
         id="path4231"
         inkscape:connector-curvature="0" />
    </g>
    <g
       id="g4448"
       transform="translate(-86.974675,27.941125)">
      <g
         style="fill:#972f2e;fill-opacity:1;stroke:#000000;stroke-width:2.55153537;stroke-miterlimit:4;stroke-dasharray:none;stroke-opacity:1"
         inkscape:label="Layer 1"
         id="layer1-5"
         transform="matrix(1.9596044,0,0,1.9596044,308.05277,-1737.5758)">
        <g
           style="font-style:normal;font-weight:normal;font-size:40px;font-family:'Bitstream Vera Sans';fill:#972f2e;fill-opacity:1;stroke:#000000;stroke-width:2.5518918;stroke-miterlimit:4;stroke-dasharray:none;stroke-opacity:1"
           id="text2824"
           transform="matrix(0.99974987,0,0,0.99997083,-112.50645,534.65124)">
          <path
             inkscape:connector-curvature="0"
             id="path2829"
             d="m 135.33996,445.56307 c -0.64315,0.0866 -1.18902,0.42763 -1.47461,0.88281 -0.2856,0.45518 -0.33075,0.9412 -0.3125,1.35742 0.0365,0.83244 0.35351,1.52735 0.35351,1.52735 a 0.7656441,0.7656441 0 0 0 0.10352,0.17187 c 4.49626,5.7015 6.65429,10.37789 6.6543,13.86914 -10e-6,4.42351 -3.1687,9.61854 -9.79493,15.45703 a 0.7656441,0.7656441 0 0 0 -0.10547,1.03516 l 12.63868,16.78906 c -1.32004,-0.38427 -2.60205,-0.64843 -3.80078,-0.64844 -2.90405,0 -5.36336,0.8058 -7.25,2.4375 -2.03502,1.73256 -3.07814,4.15477 -3.07813,7.04688 -1e-5,5.78473 4.85115,11.99596 14.16211,18.89648 a 0.7656441,0.7656441 0 0 0 1.0918,-0.18945 l 1.82812,-2.74219 a 0.7656441,0.7656441 0 0 0 -0.0664,-0.9375 c -3.24228,-3.60759 -4.7969,-7.14447 -4.79688,-10.66796 -1e-5,-1.72181 0.36382,-2.90182 0.96484,-3.62305 0.60103,-0.72123 1.46952,-1.09571 2.83985,-1.09571 2.13447,0 4.83809,0.89563 8.05078,2.77735 a 0.7656441,0.7656441 0 0 0 1.01172,-0.21875 l 2.03906,-2.88281 a 0.7656441,0.7656441 0 0 0 -0.0371,-0.9336 c -6.47533,-7.73309 -9.59573,-13.55236 -9.5957,-17.01562 -3e-5,-3.37477 2.88061,-8.94396 8.86133,-16.30469 0.37053,-0.45602 0.75463,-0.92039 1.14843,-1.39062 a 0.7656441,0.7656441 0 0 0 0.26368,-0.57422 0.7656441,0.7656441 0 0 0 0,-0.01 0.7656441,0.7656441 0 0 0 0,-0.0176 0.7656441,0.7656441 0 0 0 -0.002,-0.0176 0.7656441,0.7656441 0 0 0 -0.25976,-0.55078 l -15.9336,-19.42578 c 0,0 -0.62826,-0.82928 -1.5957,-1.61133 -0.96744,-0.78204 -2.33374,-1.60268 -3.9082,-1.39062 z m 0.20508,1.51758 c 0.90206,-0.1215 1.93052,0.40991 2.74023,1.06445 0.80971,0.65454 1.3418,1.34766 1.3418,1.34766 a 0.7656441,0.7656441 0 0 0 0.0156,0.0215 l 15.63086,19.05859 c -0.28192,0.33943 -0.56588,0.68131 -0.83594,1.01368 -6.06108,7.45965 -9.20316,13.08204 -9.20312,17.26953 -3e-5,4.22617 3.30102,9.95046 9.58594,17.53125 l -1.3418,1.89453 c -3.06715,-1.70879 -5.80281,-2.68361 -8.18164,-2.68359 -1.67656,-1e-5 -3.09322,0.53959 -4.01563,1.64648 -0.92241,1.10689 -1.32032,2.66905 -1.32031,4.60352 -2e-5,3.81118 1.67319,7.56476 4.81445,11.21484 l -1.05078,1.57812 c -8.67747,-6.569 -12.91993,-12.37725 -12.91992,-17.15234 -1e-5,-2.54277 0.83164,-4.43014 2.54297,-5.88477 a 0.7656441,0.7656441 0 0 0 0.006,-0.004 c 1.58207,-1.36829 3.62081,-2.06446 6.24805,-2.06445 1.64691,0 3.51598,0.43698 5.60156,1.34374 a 0.7656441,0.7656441 0 0 0 0.91601,-1.16406 L 132.3889,479.47705 c 6.40783,-5.77772 9.80664,-11.11249 9.80665,-16.10547 -2e-5,-4.07173 -2.3624,-8.9212 -6.89258,-14.69336 -0.0181,-0.0464 -0.20161,-0.50588 -0.22071,-0.9414 -0.01,-0.22855 0.0323,-0.40238 0.0801,-0.47852 0.0478,-0.0761 0.0804,-0.13701 0.38282,-0.17773 z"
             style="color:#000000;font-style:normal;font-variant:normal;font-weight:normal;font-stretch:normal;font-size:144px;line-height:normal;font-family:musica;-inkscape-font-specification:musica;text-indent:0;text-align:start;text-decoration:none;text-decoration-line:none;text-decoration-style:solid;text-decoration-color:#000000;letter-spacing:normal;word-spacing:normal;text-transform:none;direction:ltr;block-progression:tb;writing-mode:lr-tb;baseline-shift:baseline;text-anchor:start;white-space:normal;clip-rule:nonzero;display:inline;overflow:visible;visibility:visible;opacity:1;isolation:auto;mix-blend-mode:normal;color-interpolation:sRGB;color-interpolation-filters:linearRGB;solid-color:#000000;solid-opacity:1;fill:#000000;fill-opacity:1;fill-rule:nonzero;stroke:#000000;stroke-width:2.5518918;stroke-linecap:round;stroke-linejoin:round;stroke-miterlimit:4;stroke-dasharray:none;stroke-dashoffset:0;stroke-opacity:1;color-rendering:auto;image-rendering:auto;shape-rendering:auto;text-rendering:auto;enable-background:accumulate" />
          <path
             style="color:#000000;font-style:normal;font-variant:normal;font-weight:normal;font-stretch:normal;font-size:144px;line-height:normal;font-family:musica;-inkscape-font-specification:musica;text-indent:0;text-align:start;text-decoration:none;text-decoration-line:none;text-decoration-style:solid;text-decoration-color:#000000;letter-spacing:normal;word-spacing:normal;text-transform:none;direction:ltr;block-progression:tb;writing-mode:lr-tb;baseline-shift:baseline;text-anchor:start;white-space:normal;clip-rule:nonzero;display:inline;overflow:visible;visibility:visible;opacity:1;isolation:auto;mix-blend-mode:normal;color-interpolation:sRGB;color-interpolation-filters:linearRGB;solid-color:#000000;solid-opacity:1;fill:#000000;fill-opacity:1;fill-rule:nonzero;stroke:#000000;stroke-width:2.5518918;stroke-linecap:round;stroke-linejoin:round;stroke-miterlimit:4;stroke-dasharray:none;stroke-dashoffset:0;stroke-opacity:1;color-rendering:auto;image-rendering:auto;shape-rendering:auto;text-rendering:auto;enable-background:accumulate"
             d="m 135.33996,445.56307 c -0.64315,0.0866 -1.18902,0.42763 -1.47461,0.88281 -0.2856,0.45518 -0.33075,0.9412 -0.3125,1.35742 0.0365,0.83244 0.35351,1.52735 0.35351,1.52735 a 0.7656441,0.7656441 0 0 0 0.10352,0.17187 c 4.49626,5.7015 6.65429,10.37789 6.6543,13.86914 -10e-6,4.42351 -3.1687,9.61854 -9.79493,15.45703 a 0.7656441,0.7656441 0 0 0 -0.10547,1.03516 l 12.63868,16.78906 c -1.32004,-0.38427 -2.60205,-0.64843 -3.80078,-0.64844 -2.90405,0 -5.36336,0.8058 -7.25,2.4375 -2.03502,1.73256 -3.07814,4.15477 -3.07813,7.04688 -1e-5,5.78473 4.85115,11.99596 14.16211,18.89648 a 0.7656441,0.7656441 0 0 0 1.0918,-0.18945 l 1.82812,-2.74219 a 0.7656441,0.7656441 0 0 0 -0.0664,-0.9375 c -3.24228,-3.60759 -4.7969,-7.14447 -4.79688,-10.66796 -1e-5,-1.72181 0.36382,-2.90182 0.96484,-3.62305 0.60103,-0.72123 1.46952,-1.09571 2.83985,-1.09571 2.13447,0 4.83809,0.89563 8.05078,2.77735 a 0.7656441,0.7656441 0 0 0 1.01172,-0.21875 l 2.03906,-2.88281 a 0.7656441,0.7656441 0 0 0 -0.0371,-0.9336 c -6.47533,-7.73309 -9.59573,-13.55236 -9.5957,-17.01562 -3e-5,-3.37477 2.88061,-8.94396 8.86133,-16.30469 0.37053,-0.45602 0.75463,-0.92039 1.14843,-1.39062 a 0.7656441,0.7656441 0 0 0 0.26368,-0.57422 0.7656441,0.7656441 0 0 0 0,-0.01 0.7656441,0.7656441 0 0 0 0,-0.0176 0.7656441,0.7656441 0 0 0 -0.002,-0.0176 0.7656441,0.7656441 0 0 0 -0.25976,-0.55078 l -15.9336,-19.42578 c 0,0 -0.62826,-0.82928 -1.5957,-1.61133 -0.96744,-0.78204 -2.33374,-1.60268 -3.9082,-1.39062 z m 0.20508,1.51758 c 0.90206,-0.1215 1.93052,0.40991 2.74023,1.06445 0.80971,0.65454 1.3418,1.34766 1.3418,1.34766 a 0.7656441,0.7656441 0 0 0 0.0156,0.0215 l 15.63086,19.05859 c -0.28192,0.33943 -0.56588,0.68131 -0.83594,1.01368 -6.06108,7.45965 -9.20316,13.08204 -9.20312,17.26953 -3e-5,4.22617 3.30102,9.95046 9.58594,17.53125 l -1.3418,1.89453 c -3.06715,-1.70879 -5.80281,-2.68361 -8.18164,-2.68359 -1.67656,-1e-5 -3.09322,0.53959 -4.01563,1.64648 -0.92241,1.10689 -1.32032,2.66905 -1.32031,4.60352 -2e-5,3.81118 1.67319,7.56476 4.81445,11.21484 l -1.05078,1.57812 c -8.67747,-6.569 -12.91993,-12.37725 -12.91992,-17.15234 -1e-5,-2.54277 0.83164,-4.43014 2.54297,-5.88477 a 0.7656441,0.7656441 0 0 0 0.006,-0.004 c 1.58207,-1.36829 3.62081,-2.06446 6.24805,-2.06445 1.64691,0 3.51598,0.43698 5.60156,1.34374 a 0.7656441,0.7656441 0 0 0 0.91601,-1.16406 L 132.3889,479.47705 c 6.40783,-5.77772 9.80664,-11.11249 9.80665,-16.10547 -2e-5,-4.07173 -2.3624,-8.9212 -6.89258,-14.69336 -0.0181,-0.0464 -0.20161,-0.50588 -0.22071,-0.9414 -0.01,-0.22855 0.0323,-0.40238 0.0801,-0.47852 0.0478,-0.0761 0.0804,-0.13701 0.38282,-0.17773 z"
             id="path4436"
             inkscape:connector-curvature="0" />
        </g>
      </g>
      <g
         transform="matrix(1.9596044,0,0,1.9596044,342.46498,-1725.9491)"
         id="g4428"
         inkscape:label="Layer 1"
         style="fill:#2e6a97;fill-opacity:1;stroke:#ffffff;stroke-linecap:round;stroke-opacity:1">
        <g
           transform="matrix(0.99974987,0,0,0.99997083,-112.50645,534.65124)"
           id="g4430"
           style="font-style:normal;font-weight:normal;font-size:40px;font-family:'Bitstream Vera Sans';fill:#2e6a97;fill-opacity:1;stroke:#ffffff;stroke-linecap:round;stroke-opacity:1">
          <path
             id="path4432"
             style="font-size:144px;font-family:musica;-inkscape-font-specification:musica;fill:#2e6a97;fill-opacity:1;stroke:#ffffff;stroke-linecap:round;stroke-opacity:1"
             d="m 138.76116,462.5307 c -6.84377,8.15627 -10.26565,14.25001 -10.26562,18.28125 -3e-5,3.89063 3.25778,9.72656 9.77343,17.50781 l -2.03906,2.88282 c -3.28128,-1.92189 -6.09377,-2.88283 -8.4375,-2.88282 -3.04689,-10e-6 -4.57033,1.82811 -4.57031,5.48438 -2e-5,3.74998 1.66404,7.47654 4.99219,11.17969 l -1.82813,2.74218 c -9.23438,-6.84377 -13.85157,-12.93751 -13.85156,-18.28125 -1e-5,-2.71876 0.93749,-4.875 2.8125,-6.46875 1.73436,-1.5 3.98436,-2.25 6.75,-2.25 1.78123,0 3.74998,0.46875 5.90625,1.40625 l -14.13281,-18.77343 c 6.70311,-5.90624 10.05467,-11.24998 10.05468,-16.03125 -10e-6,-3.79685 -2.27345,-8.57809 -6.82031,-14.34375 0,0 -1.0586,-2.4517 0.83244,-2.70639 2.47653,-0.33355 4.79256,2.70639 4.79256,2.70639 l 16.03125,19.54687"
             inkscape:connector-curvature="0"
             sodipodi:nodetypes="ccccscccscsccscscc" />
        </g>
      </g>
    </g>
    <path
       inkscape:connector-curvature="0"
       d="m 322.87075,350.09541 0,-17.00357 7.04638,-1.99531 0,16.91681 -7.04638,2.08207 z m 13.87432,-4.11353 -4.84438,1.42418 0,-16.91681 4.84438,-1.38804 0,-7.02698 -4.84438,1.38804 0,-17.28468 -1.98356,0 0,17.80881 -7.04638,2.07845 0,-16.80753 -1.87081,0 0,17.44734 -4.84439,1.39166 0,7.04144 4.84439,-1.38805 0,16.88428 -4.84439,1.38444 0,7.01252 4.84439,-1.38804 0,17.18708 1.87081,0 0,-17.80159 7.04638,-1.98808 0,16.72079 1.98356,0 0,-17.34975 4.84438,-1.39166 0,-7.03782 z"
       id="path4149"
       style="fill:#2e6a97;fill-opacity:1;stroke:#2e6a97;stroke-opacity:1;stroke-linecap:round;stroke-linejoin:round" />
  </g>
</svg>
